<svg id="Layer_1" data-name="Layer 1" xmlns="http://www.w3.org/2000/svg" viewBox="0 0 65.98 61.64"><defs><style>.cls-1{fill:#54c69f;}.cls-2{fill:gray;}.cls-3{fill:#56dea8;}</style></defs><title>Artboard 3</title><path class="cls-1" d="M27,16.88a23.22,23.22,0,0,1,7,9.48,32.32,32.32,0,0,1-11.74-5.63,23.22,23.22,0,0,1-7-9.48A32.32,32.32,0,0,1,27,16.88Z"/><path class="cls-1" d="M40.41,16.88a23.22,23.22,0,0,0-7,9.48,32.32,32.32,0,0,0,11.74-5.63,23.22,23.22,0,0,0,7-9.48A32.32,32.32,0,0,0,40.41,16.88Z"/><path class="cls-2" d="M3.35,39.3a4,4,0,0,1,1.25.17,2.82,2.82,0,0,1,.91.49,2.87,2.87,0,0,1,1,1.72L5,41.95a2.25,2.25,0,0,0-.59-1,1.41,1.41,0,0,0-1-.38,1.57,1.57,0,0,0-1.32.68,3.45,3.45,0,0,0-.54,2.06A3.74,3.74,0,0,0,2,45.37a1.49,1.49,0,0,0,1.31.74,1.74,1.74,0,0,0,1.25-.4,1.37,1.37,0,0,0,.42-1H6.5a2.52,2.52,0,0,1-.83,2,3.4,3.4,0,0,1-2.29.71A3.05,3.05,0,0,1,.92,46.33a4.53,4.53,0,0,1-.92-3,4.39,4.39,0,0,1,.95-3A3,3,0,0,1,3.35,39.3Z"/><path class="cls-2" d="M11.16,39.45h1.78l2.56,7.79H14l-.54-1.68H10.56L10,47.24H8.51Zm-.24,5H13.1L12,41.15Z"/><path class="cls-2" d="M19.6,39.45,23,45V39.45h1.42v7.79H23l-3.54-5.71v5.71H18V39.45Z"/><path class="cls-2" d="M29.4,39.45,32.83,45V39.45h1.42v7.79H32.81l-3.54-5.71v5.71H27.85V39.45Z"/><path class="cls-2" d="M39.48,39.45h1.78l2.56,7.79h-1.5l-.54-1.68H38.88l-.55,1.68h-1.5Zm-.24,5h2.18l-1.08-3.35Z"/><path class="cls-2" d="M46.39,39.45h3.14a3,3,0,0,1,2,.61,1.81,1.81,0,0,1,.67,1.45,1.78,1.78,0,0,1-.37,1.13,2,2,0,0,1-1,.66,2,2,0,0,1,1.09.59,1.66,1.66,0,0,1,.43,1.18,2,2,0,0,1-1.43,2,4.12,4.12,0,0,1-1.37.19H46.39Zm1.42,3.29h1.67a1.44,1.44,0,0,0,1-.28.93.93,0,0,0,.32-.75,1,1,0,0,0-.32-.76,1.4,1.4,0,0,0-1-.28H47.81ZM49.51,46a1.46,1.46,0,0,0,1-.28,1,1,0,0,0,0-1.47,1.44,1.44,0,0,0-1-.28h-1.7v2Z"/><path class="cls-2" d="M55.37,39.45h1.42v7.79H55.37Z"/><path class="cls-2" d="M64.31,41.6q-.19-1-1.44-1a1.61,1.61,0,0,0-1,.25.72.72,0,0,0-.34.59.69.69,0,0,0,.22.55,2.1,2.1,0,0,0,.69.37l1.69.66a3.49,3.49,0,0,1,1.33.85A1.82,1.82,0,0,1,66,45.12a2,2,0,0,1-.79,1.67,3.6,3.6,0,0,1-2.26.62,3.29,3.29,0,0,1-2.1-.64,2.47,2.47,0,0,1-.95-2h1.4a1.16,1.16,0,0,0,1,1.21,3,3,0,0,0,.79.08,1.77,1.77,0,0,0,.91-.25.74.74,0,0,0,.42-.66.85.85,0,0,0-.23-.64,2.16,2.16,0,0,0-.74-.41l-1.55-.61a4,4,0,0,1-1.38-.82,1.73,1.73,0,0,1-.48-1.3,1.82,1.82,0,0,1,.76-1.54,3.35,3.35,0,0,1,2.08-.59,3,3,0,0,1,2,.61,2.44,2.44,0,0,1,.82,1.7Z"/><path class="cls-2" d="M11.74,56.24a2.2,2.2,0,0,1-.47,1.42,2.44,2.44,0,0,1-1.34.82L12,61.64H10.17l-1.72-3H7.37v3H6V53.85H8.84a3.19,3.19,0,0,1,2.15.66A2.14,2.14,0,0,1,11.74,56.24Zm-3,1.42a1.71,1.71,0,0,0,1.18-.35,1.19,1.19,0,0,0,.4-.94,1.25,1.25,0,0,0-.36-.94,1.48,1.48,0,0,0-1.08-.35H7.37v2.58Z"/><path class="cls-2" d="M14.87,53.85h5v1.22h-3.6v2.05h3.37v1.22H16.29v2.05h3.6v1.24h-5Z"/><path class="cls-2" d="M24.53,60.41h3.2v1.24H23.12V53.85h1.42Z"/><path class="cls-2" d="M32,53.85h1.78l2.56,7.79h-1.5L34.34,60H31.45l-.55,1.68h-1.5Zm-.24,5H34l-1.08-3.35Z"/><path class="cls-2" d="M37.37,53.85h6.24v1.22H41.2v6.56H39.79V55.08H37.37Z"/><path class="cls-2" d="M46,53.85h5v1.22h-3.6v2.05h3.37v1.22H47.41v2.05H51v1.24H46Z"/><path class="cls-2" d="M56.75,53.85a4,4,0,0,1,2.87,1.06,4.2,4.2,0,0,1,0,5.68,4,4,0,0,1-2.87,1.06H54.22V53.85Zm-1.1,6.5h1.1a2.31,2.31,0,0,0,1.79-.74,2.67,2.67,0,0,0,.65-1.86,2.71,2.71,0,0,0-.65-1.88,2.31,2.31,0,0,0-1.79-.73h-1.1Z"/><path class="cls-3" d="M37.94,13.24A25.37,25.37,0,0,1,33.7,26.48a25.37,25.37,0,0,1-4.24-13.24A25.37,25.37,0,0,1,33.7,0,25.37,25.37,0,0,1,37.94,13.24Z"/><path class="cls-3" d="M26,24.37a18.7,18.7,0,0,1,8.32,2.12A18.7,18.7,0,0,1,26,28.6a18.7,18.7,0,0,1-8.32-2.12A18.7,18.7,0,0,1,26,24.37Z"/><path class="cls-3" d="M42,24.37a18.7,18.7,0,0,1,8.32,2.12A18.7,18.7,0,0,1,42,28.6a18.7,18.7,0,0,1-8.32-2.12A18.7,18.7,0,0,1,42,24.37Z"/></svg>