<?xml version="1.0" encoding="UTF-8" standalone="no"?>
<svg width="40px" height="26px" viewBox="0 0 40 26" version="1.1" xmlns="http://www.w3.org/2000/svg" xmlns:xlink="http://www.w3.org/1999/xlink" xmlns:sketch="http://www.bohemiancoding.com/sketch/ns">
    <!-- Generator: Sketch 3.3.3 (12081) - http://www.bohemiancoding.com/sketch -->
    <title>Group + Path Copy 3</title>
    <desc>Created with Sketch.</desc>
    <defs></defs>
    <g id="Page-1" stroke="none" stroke-width="1" fill="none" fill-rule="evenodd" sketch:type="MSPage">
        <g id="cannabis-icon" sketch:type="MSArtboardGroup" transform="translate(-18.000000, -85.000000)">
            <g id="Group-+-Path-Copy-3" sketch:type="MSLayerGroup" transform="translate(17.000000, 81.000000)">
                <g id="Group" transform="translate(22.884271, 20.573526) rotate(-13.000000) translate(-22.884271, -20.573526) translate(3.384271, 4.073526)" sketch:type="MSShapeGroup">
                    <path d="M11.9208748,13.5899409 C6.56358485,6.98003576 7.60280727e-13,5.5704844 7.60280727e-13,5.5704844 C7.60280727e-13,5.5704844 0.0192403809,13.0642023 5.70973773,19.1393309 C8.11647539,21.7087444 12.3102937,24.4707997 16.4009422,25.4120505 C16.050176,21.3081971 15.5826908,18.1079445 11.9208748,13.5899409 Z" id="Path-22" fill="#59BF26"></path>
                    <path d="M16.3020326,12.8690074 C13.5285474,4.8254272 7.84289012,1.25600395 7.84289012,1.25600395 C7.84289012,1.25600395 5.29796769,8.30437597 8.56746972,15.9593942 C9.95027216,19.1970058 12.9464938,23.2268592 16.4685192,25.5104298 C17.5425074,21.5341 18.1977657,18.3669569 16.3020326,12.8690074 Z" id="Path-22-Copy" fill-opacity="0.8" fill="#59BF27"></path>
                    <path d="M14.5268467,12.8746937 C16.0078925,4.49627466 21.0651691,0.0813641814 21.0651691,0.0813641814 C21.0651691,0.0813641814 24.6813677,6.64484547 22.6496273,14.7170805 C21.7903235,18.1311497 19.4613983,22.5801012 16.339964,25.3865234 C14.6571634,21.6271576 13.514522,18.6015123 14.5268467,12.8746937 Z" id="Path-22-Copy" fill-opacity="0.6" fill="#59BF27"></path>
                    <path d="M20.7248101,13.5899409 C26.0821001,6.98003576 32.6456849,5.5704844 32.6456849,5.5704844 C32.6456849,5.5704844 32.6264446,13.0642023 26.9359472,19.1393309 C24.5292095,21.7087444 20.3353912,24.4707997 16.2447427,25.4120505 C16.5955089,21.3081971 17.0629942,18.1079445 20.7248101,13.5899409 Z" id="Path-22" fill-opacity="0.4" fill="#59BF26"></path>
                    <path d="M22.7481161,18.1622743 C28.1054061,11.5523692 34.6689909,10.1428178 34.6689909,10.1428178 C34.6689909,10.1428178 34.6497505,17.6365357 28.9592532,23.7116643 C26.5525155,26.2810778 22.3586972,29.0431331 18.2680487,29.9843839 C18.6188149,25.8805306 19.0863001,22.680278 22.7481161,18.1622743 Z" id="Path-22-Copy-4" fill-opacity="0.4" fill="#59BF26" transform="translate(26.468520, 20.063601) rotate(28.000000) translate(-26.468520, -20.063601) "></path>
                </g>
                <path d="M19.5484694,26.3764 L14,20.8232085 L15.5646684,19.2572085 L19.5484694,23.2332936 L27.9710459,14.8035489 L29.5357143,16.3806553 L19.5484694,26.3764 L19.5484694,26.3764 Z" id="Path-Copy-3" fill="#FFFFFF" sketch:type="MSShapeGroup"></path>
            </g>
        </g>
    </g>
</svg>