<svg id="Layer_1" data-name="Layer 1" xmlns="http://www.w3.org/2000/svg" viewBox="0 0 22 22"><defs><style>.cls-1{fill:#fff;}</style></defs><title>Artboard 51</title><path class="cls-1" d="M20.39.82c-.66.87-2.52,1.64-4.29,1.89-2.54.35-4.47-.85-7.25-.47A6.77,6.77,0,0,0,3.05,9.82a13.34,13.34,0,0,1,11.24-3.5l-.13,0-.59.1L13,6.51A13.29,13.29,0,0,0,1.46,19.88a1.51,1.51,0,0,0,2.42.44q0-.17-.05-.35A12.18,12.18,0,0,1,3.72,18a12,12,0,0,1,.54-3.31,11.68,11.68,0,0,0,6.25,1l.17,0,.17,0a11.73,11.73,0,0,0,9-7q.21-.5.38-1,.07-.22.13-.44a11.7,11.7,0,0,0,.31-4.71A11.84,11.84,0,0,0,20.39.82Z"/></svg>