<svg id="Layer_1" data-name="Layer 1" xmlns="http://www.w3.org/2000/svg" xmlns:xlink="http://www.w3.org/1999/xlink" viewBox="0 0 16 16"><defs><style>.cls-1{fill:url(#linear-gradient);}</style><linearGradient id="linear-gradient" x1="-4.8" y1="93.56" x2="12.37" y2="93.56" gradientTransform="matrix(0.99, -0.12, 0.12, 0.99, -6.82, -84.47)" gradientUnits="userSpaceOnUse"><stop offset="0" stop-color="#48cc96"/><stop offset="1" stop-color="#58e0ab"/></linearGradient></defs><title>Artboard 3</title><path class="cls-1" d="M15.53.16a5.8,5.8,0,0,1-3.46,1.45c-2,.24-3.56-.75-5.8-.49a5.42,5.42,0,0,0-4.75,6,10.68,10.68,0,0,1,9-2.63h-.1L10,4.55l-.5,0A10.63,10.63,0,0,0,.1,15.12,1.21,1.21,0,0,0,2,15.52q0-.14,0-.28a9.75,9.75,0,0,1-.06-1.55A9.61,9.61,0,0,1,2.42,11a9.35,9.35,0,0,0,5,.86h.14l.14,0A9.39,9.39,0,0,0,15,6.38q.18-.4.32-.82l.11-.35a9.36,9.36,0,0,0,.32-3.77A9.48,9.48,0,0,0,15.53.16Z"/></svg>