<svg id="Layer_1" data-name="Layer 1" xmlns="http://www.w3.org/2000/svg" viewBox="0 0 180 55"><defs><style>.cls-1{fill:#fff;}</style></defs><title>Artboard 1</title><path class="cls-1" d="M14.81,31.06l.1.24c.22.5.47,1,.72,1.45A18.61,18.61,0,0,1,15.91,29l0-.27.06-.27A18.55,18.55,0,0,1,27.36,15c-.07-.14-.14-.28-.2-.43-1-2.43-1.43-5.35-.82-6.84a17.43,17.43,0,0,0-2.28.77,17.22,17.22,0,0,0-5.74,3.92l-.46.49q-.54.6-1,1.25a17.26,17.26,0,0,0-2.13,16.7Z"/><path class="cls-1" d="M54.38,16.34h2.91V38.87h9.42V41.5H54.38Z"/><path class="cls-1" d="M77.23,22.34c5.5,0,8.88,4,8.88,9.56,0,.11,0,.5,0,.86h-15a6.35,6.35,0,0,0,6.72,6.68,6.84,6.84,0,0,0,5.82-2.91L85.5,37.9A8.69,8.69,0,0,1,77.77,42c-5.68,0-9.59-4-9.59-9.74C68.18,26.26,72.27,22.34,77.23,22.34Zm6,8.3a5.74,5.74,0,0,0-6-5.86,6,6,0,0,0-6,5.86Z"/><path class="cls-1" d="M96.38,29.6a7.11,7.11,0,0,1,4.92,1.69V29c0-2.62-1.76-4.13-4.53-4.13a10.71,10.71,0,0,0-5.5,1.62l-1.15-2.08a13.17,13.17,0,0,1,6.9-2c5.1,0,7.12,2.84,7.12,6.83V41.5H101.7l-.32-1.58a6.37,6.37,0,0,1-5.07,2c-4.1,0-7.11-2.59-7.11-6.22S92.18,29.6,96.38,29.6Zm.4,10c2.73,0,4.64-1.62,4.64-3.88s-1.87-3.85-4.67-3.85-4.67,1.65-4.67,3.85S93.9,39.59,96.78,39.59Z"/><path class="cls-1" d="M110,25.22H108V22.81H110v-1c0-4.71,2.84-6.22,5.86-6.22a10.8,10.8,0,0,1,1.19.07v2.48a6.83,6.83,0,0,0-.9-.07c-2.12,0-3.27,1.15-3.27,3.74v1h4v2.41h-4V41.5H110Z"/><path class="cls-1" d="M123.29,16.34h2.91V38.87h9.41V41.5H123.29Z"/><path class="cls-1" d="M139.71,16.06A2,2,0,1,1,137.77,18,1.94,1.94,0,0,1,139.71,16.06Zm-1.4,6.76h2.84V41.5h-2.84Z"/><path class="cls-1" d="M147.33,36.68A5,5,0,0,0,152,39.56c1.87,0,3.45-1.08,3.45-3,0-4.31-9.38-2.84-9.38-9.16,0-3.16,2.62-5.07,6-5.07a5.93,5.93,0,0,1,5.79,3.59l-2.08,1.19a4,4,0,0,0-3.88-2.41c-1.72,0-3.09,1-3.09,2.59,0,4.2,9.41,2.62,9.41,9.13,0,3.31-2.73,5.53-6.36,5.53a6.66,6.66,0,0,1-6.5-4Z"/><path class="cls-1" d="M163.18,18.9H166v3.92h4.1v2.41H166v9.63c0,3.49,1,4.31,3.45,4.31.36,0,.79,0,.79,0v2.52a13.49,13.49,0,0,1-1.72.11c-3.74,0-5.35-2.44-5.35-6.65V25.22H161V22.81h2.19Z"/><path class="cls-1" d="M40.38,16.93c-1.33.9-2.61,3.57-3.1,6.15-.71,3.71.91,6.63.13,10.69a10,10,0,0,1-11.58,7.92,19.63,19.63,0,0,0,6-16.24l0,.19q-.08.43-.19.86t-.15.9A19.55,19.55,0,0,1,10.93,43.28a2.22,2.22,0,0,1-.47-3.59l.51.11a17.92,17.92,0,0,0,2.84.31,17.67,17.67,0,0,0,4.91-.54,17.19,17.19,0,0,1-.92-9.26l0-.25.05-.25A17.26,17.26,0,0,1,28.91,17q.76-.28,1.54-.48l.66-.16a17.22,17.22,0,0,1,6.95-.09A17.43,17.43,0,0,1,40.38,16.93Z"/></svg>